<svg width="52" height="51" viewBox="0 0 52 51" fill="none" xmlns="http://www.w3.org/2000/svg">
<g clip-path="url(#clip0_101_2)">
<path d="M39 34L39 8" stroke="#FDFCFC" stroke-width="2" stroke-linecap="round"/>
<path d="M32.4731 17L39 14" stroke="#FDFCFC" stroke-width="2" stroke-linecap="round"/>
<path d="M30 24L38.5269 20" stroke="#FDFCFC" stroke-width="2" stroke-linecap="round"/>
<path d="M28 30L38.5269 26" stroke="#FDFCFC" stroke-width="2" stroke-linecap="round"/>
<path d="M45.5269 17L39 14" stroke="#FDFCFC" stroke-width="2" stroke-linecap="round"/>
<path d="M48 24L39 20" stroke="#FDFCFC" stroke-width="2" stroke-linecap="round"/>
<path d="M49 30L39 26" stroke="#FDFCFC" stroke-width="2" stroke-linecap="round"/>
<path d="M36 10L39 8" stroke="#FDFCFC" stroke-width="2" stroke-linecap="round"/>
<path d="M42 10L39 8" stroke="#FDFCFC" stroke-width="2" stroke-linecap="round"/>
<circle cx="13" cy="4" r="3" stroke="#F4F4F4" stroke-width="2"/>
<path d="M0 38.766C2.61378 35.8961 9.67098 31.8783 16.9896 38.766C26.1378 47.3755 33.9791 48.6054 37.377 47.7855" stroke="#31C5E6" stroke-width="2" stroke-linecap="round"/>
<path d="M0 38.766C2.61378 35.8961 9.67098 31.8783 16.9896 38.766C26.1378 47.3755 33.9791 48.6054 37.377 47.7855" stroke="#31C5E6" stroke-width="2" stroke-linecap="round"/>
<path d="M18.3607 34.5555C27.5089 43.1651 35.2906 43.7166 38.6885 42.8966" stroke="#7FD1E3" stroke-width="2" stroke-linecap="round"/>
<path d="M2.62292 29.803C5.2367 26.9332 12.2939 22.9154 19.6125 29.803C28.7607 38.4126 36.6021 39.6425 40 38.8225" stroke="#31C5E6" stroke-width="2" stroke-linecap="round"/>
<path d="M2.62292 29.803C5.2367 26.9332 12.2939 22.9154 19.6125 29.803C28.7607 38.4126 36.6021 39.6425 40 38.8225" stroke="#289CB6" stroke-width="2" stroke-linecap="round"/>
<path d="M11 19L19 12L27 19" stroke="#F4F4F4" stroke-width="2" stroke-linecap="round"/>
<path d="M14 15.3478L10.4324 13L2 19" stroke="#F4F4F4" stroke-width="2" stroke-linecap="round"/>
</g>
<defs>
<clipPath id="clip0_101_2">
<rect width="52" height="51" fill="white"/>
</clipPath>
</defs>
</svg>
